<svg xmlns="http://www.w3.org/2000/svg" xmlns:svg="http://www.w3.org/2000/svg" id="svg4845" width="17" height="21" version="1.1" viewBox="0 0 17 21"><metadata id="metadata4850"/><g id="layer1" transform="translate(-1315,-1621.3622)"><rect style="color:#000;clip-rule:nonzero;display:inline;overflow:visible;visibility:visible;opacity:1;isolation:auto;mix-blend-mode:normal;color-interpolation:sRGB;color-interpolation-filters:linearRGB;solid-color:#000;solid-opacity:1;fill:#e6e6e6;fill-opacity:0;fill-rule:evenodd;stroke:none;stroke-width:1;stroke-linecap:round;stroke-linejoin:round;stroke-miterlimit:4;stroke-dasharray:none;stroke-dashoffset:0;stroke-opacity:1;marker:none;color-rendering:auto;image-rendering:auto;shape-rendering:auto;text-rendering:auto;enable-background:accumulate" id="rect5549" width="17" height="21" x="1315" y="1621.362"/><path style="color:#000;display:inline;overflow:visible;visibility:visible;fill:#fff;fill-opacity:1;fill-rule:evenodd;stroke:#4d4d4d;stroke-width:1;stroke-linecap:round;stroke-linejoin:round;marker:none;enable-background:accumulate" id="path4616" d="m 1317.5,1622.8622 -2,2 0,2.5 c 1.5,1 1.5,3 0,4 0,8 6.328,10.082 8,10.5 1.6168,-0.4042 8.0776,-3.2694 8,-10.5 -1.5,-1 -1.5,-3 0,-4 l 0,-2.5 -2,-2 c -1.5,1.5 -4.5,1.5 -6,0 -1.5,1.5 -4.5,1.5 -6,0 z"/><path style="fill:none;fill-rule:evenodd;stroke:#4d4d4d;stroke-width:1px;stroke-linecap:round;stroke-linejoin:round;stroke-opacity:1" id="path5547" d="m 1316,1627.3622 c 3,-1 12,-1 15,0"/></g></svg>