<svg xmlns="http://www.w3.org/2000/svg" xmlns:svg="http://www.w3.org/2000/svg" id="svg3844" width="17" height="22" version="1.1"><metadata id="metadata3849"/><g id="layer1" transform="translate(-301,-901.36218)"><path style="color:#000;fill:#fff;fill-opacity:1;fill-rule:evenodd;stroke:#4d4d4d;stroke-width:1;stroke-linecap:round;stroke-linejoin:round;marker:none;visibility:visible;display:inline;overflow:visible;enable-background:accumulate" id="path3799" d="m 3.5,1 -3,2.5 C 1,4 2.5,5 1.5,7 0.5,9 0,17 2,19 c 2.5,2.5 5.5,0.5 6.5,2.5 1,-2 4,0 6.5,-2.5 2,-2 1.5,-10 0.5,-12 -1,-2 0.5,-3 1,-3.5 L 13.5,1 c -2,1 -2.5,2 -5,0 -2.5,2 -3,1 -5,0 z" clip-path="none" transform="translate(301,901.36218)"/><rect style="opacity:0;color:#000;fill:#000;fill-opacity:1;fill-rule:nonzero;stroke:none;stroke-width:1;marker:none;visibility:visible;display:inline;overflow:visible;enable-background:accumulate" id="rect3803" width="17" height="22" x="301" y="901.362"/></g></svg>